<?xml version="1.0" encoding="UTF-8" standalone="no"?>
<svg
   xmlns:dc="http://purl.org/dc/elements/1.1/"
   xmlns:cc="http://creativecommons.org/ns#"
   xmlns:rdf="http://www.w3.org/1999/02/22-rdf-syntax-ns#"
   xmlns:svg="http://www.w3.org/2000/svg"
   xmlns="http://www.w3.org/2000/svg"
   viewBox="0 0 93.333336 129.33333"
   height="129.33333"
   width="93.333336"
   xml:space="preserve"
   id="svg2"
   version="1.1"><metadata
     id="metadata8"><rdf:RDF><cc:Work
         rdf:about=""><dc:format>image/svg+xml</dc:format><dc:type
           rdf:resource="http://purl.org/dc/dcmitype/StillImage" /></cc:Work></rdf:RDF></metadata><defs
     id="defs6"><clipPath
       id="clipPath18"
       clipPathUnits="userSpaceOnUse"><path
         id="path16"
         d="M 0,97 H 70 V 0 H 0 Z" /></clipPath></defs><g
     transform="matrix(1.3333333,0,0,-1.3333333,0,129.33333)"
     id="g10"><g
       id="g12"><g
         clip-path="url(#clipPath18)"
         id="g14"><g
           transform="translate(54.8447,97.0002)"
           id="g20"><path
             id="path22"
             style="fill:#000000;fill-opacity:1;fill-rule:nonzero;stroke:none"
             d="m 0,0 h -0.381 c -0.681,-0.352 -1.088,-0.943 -1.437,-1.595 -0.586,-1.093 -1.004,-2.254 -1.317,-3.444 -0.213,-0.809 -0.653,-1.197 -1.481,-1.339 -2.337,-0.403 -4.041,-1.73 -5.23,-3.743 -0.742,-1.256 -1.319,-2.588 -1.844,-3.945 -1.428,-3.683 -2.519,-7.48 -3.85,-11.196 -0.636,-1.774 -0.662,-1.75 -2.567,-1.769 -2.266,-0.022 -2.107,0.353 -2.142,-2.146 -0.011,-0.792 0.24,-1.192 1.081,-1.152 0.26,0.013 0.651,0.131 0.75,-0.215 0.081,-0.288 -0.24,-0.488 -0.432,-0.69 -1.192,-1.257 -2.686,-1.989 -4.338,-2.433 -1.898,-0.511 -3.833,-0.909 -5.691,-1.533 -4.742,-1.592 -9.138,-3.813 -12.554,-7.574 -2.085,-2.295 -3.519,-5.017 -4.738,-7.841 -3.714,-8.603 -5.454,-17.707 -6.838,-26.899 -0.649,-4.305 -1.105,-8.634 -1.459,-12.971 -0.177,-2.167 -0.406,-4.335 -0.374,-6.515 h 33.324 c 0.118,0.461 -0.074,0.874 -0.231,1.281 -0.679,1.753 -2.069,2.667 -3.827,3.073 -0.694,0.16 -0.782,0.368 -0.351,0.914 0.732,0.928 1.214,1.996 1.591,3.105 1.632,4.807 2.263,9.822 3.051,14.8 0.601,3.799 1.499,7.474 3.477,10.827 1.462,2.479 3.295,4.625 5.595,6.372 0.831,0.63 0.857,0.63 0.999,-0.44 0.095,-0.717 0.12,-1.444 0.164,-2.167 0.289,-4.727 0.264,-9.453 -0.172,-14.171 -0.34,-3.679 -0.474,-7.353 -0.153,-11.043 0.37,-4.253 1.153,-8.427 2.235,-12.551 H 4.189 c -0.323,2.193 -2.104,4.025 -4.24,4.44 -1.284,0.25 -2.528,0.082 -3.768,-0.202 -0.598,-0.136 -0.848,-0.029 -0.899,0.65 -0.395,5.318 -0.125,10.604 0.962,15.819 1.256,6.025 2.438,12.063 3.065,18.184 0.261,2.543 1.034,4.826 2.274,7.027 1.194,2.119 2.233,4.324 3.406,6.456 0.928,1.688 1.105,3.396 0.415,5.189 -0.273,0.707 -0.53,1.423 -0.862,2.102 -0.957,1.959 -1.971,3.888 -2.914,5.853 -0.488,1.015 -0.387,1.124 0.709,1.147 1.631,0.035 1.632,0.035 1.657,1.643 0.004,0.221 -0.005,0.442 -0.001,0.663 0.014,0.688 -0.256,1.069 -1.015,1.013 -0.505,-0.037 -1.015,0 -1.522,-0.01 -0.692,-0.013 -0.892,0.288 -0.722,0.955 0.579,2.28 2.779,4.149 5.136,4.436 2.239,0.272 4.428,-0.044 6.612,-0.431 0.649,-0.115 1.006,0.026 1.251,0.639 0.398,0.997 0.847,1.974 1.288,2.953 0.185,0.409 0.2,0.767 -0.092,1.145 -3.178,4.105 -6.641,7.9 -11.371,10.306 C 3.062,-6.771 2.787,-6.449 2.67,-5.898 2.371,-4.478 2.02,-3.068 1.403,-1.74 1.079,-1.042 0.706,-0.391 0,0" /></g></g></g></g></svg>